<svg width="150" height="78" viewBox="0 0 150 78" fill="none" xmlns="http://www.w3.org/2000/svg">
<path d="M141.679 8.83545H133.339V25.4991H141.679V8.83545Z" fill="url(#paint0_linear_1505_20442)"/>
<path d="M141.66 8.83716H124.981V17.169H141.66V8.83716Z" fill="url(#paint1_linear_1505_20442)"/>
<path d="M85.0469 32.3629L91.4318 21.8098H99.5197V48.8699H91.9355V33.2528L86.5564 42.4144H83.5775L78.1983 33.2528V48.8699H70.6142V21.8098H78.7021L85.0486 32.3629H85.0469Z" fill="#FF3C00"/>
<path d="M104.163 21.8098H112.521V34.9141L120.337 21.8098H128.695V48.8699H120.337V35.804L112.521 48.8699H104.163V21.8098Z" fill="#FF3C00"/>
<path d="M6.19141 70.7294L9.36051 64.2522L0 45.2556H4.15152L11.3637 60.1396L18.6843 45.2556H22.6907L10.3062 70.7277H6.18975L6.19141 70.7294Z" fill="white"/>
<path d="M38.1643 53.3008H34.1328L29.4159 60.3595H26.4836V53.3008H23.0627V71.0376H26.4836V63.6873H29.4643L35.0369 71.0376H39.065L32.1997 61.8626L38.1643 53.3008Z" fill="white"/>
<path d="M54.7085 54.1423C53.4375 53.3191 51.9964 52.9009 50.4252 52.9009C49.1526 52.9009 47.9967 53.1792 46.9909 53.7307C46.247 54.1373 45.5865 54.6689 45.0161 55.3171V53.3025H41.6501V77.4965H45.0894V69.108C45.6565 69.7329 46.3137 70.2494 47.0476 70.646C48.0417 71.1843 49.1726 71.4559 50.4085 71.4559C51.9914 71.4559 53.4375 71.0409 54.7102 70.2244C55.9778 69.4096 56.9819 68.2798 57.6958 66.865C58.4063 65.457 58.7666 63.8806 58.7666 62.1775C58.7666 60.4745 58.4063 58.9165 57.6958 57.5084C56.9819 56.0953 55.9778 54.9622 54.7102 54.1407L54.7085 54.1423ZM55.3607 62.1959C55.3607 63.3457 55.1405 64.3838 54.7085 65.282C54.2798 66.1718 53.666 66.875 52.8821 67.3749C52.0982 67.8749 51.1791 68.1265 50.1517 68.1265C49.1242 68.1265 48.1835 67.8732 47.3929 67.3733C46.6023 66.8734 45.9818 66.1685 45.5481 65.2787C45.1095 64.3805 44.8876 63.3423 44.8876 62.1942C44.8876 61.0461 45.1095 60.0196 45.5498 59.1081C45.9835 58.2066 46.6056 57.4934 47.3962 56.9868C48.1852 56.4819 49.1075 56.2253 50.135 56.2253C51.1624 56.2253 52.0798 56.4819 52.8637 56.9851C53.6493 57.4917 54.2681 58.2016 54.7018 59.0981C55.1405 60.0029 55.364 61.0444 55.364 62.1925L55.3607 62.1959Z" fill="white"/>
<path d="M74.9007 55.2121C74.3336 54.5889 73.6815 54.079 72.9509 53.6907C71.9635 53.1658 70.8293 52.8992 69.5833 52.8992C68.0121 52.8992 66.571 53.3174 65.3 54.1406C64.0324 54.9605 63.0283 56.0936 62.3144 57.5083C61.6039 58.9164 61.2436 60.4861 61.2436 62.1775C61.2436 63.8689 61.6039 65.4569 62.3144 66.865C63.0283 68.2797 64.0324 69.4095 65.3 70.2244C66.571 71.0409 68.0188 71.4558 69.6 71.4558C70.8743 71.4558 72.0269 71.1742 73.0276 70.616C73.7649 70.2044 74.4237 69.6712 74.9908 69.0229V71.0359H78.3567V53.3008H74.8991V55.2121H74.9007ZM74.4571 59.1081C74.8957 60.0196 75.1192 61.0577 75.1192 62.1942C75.1192 63.3306 74.8974 64.3804 74.4587 65.2786C74.0251 66.1685 73.4046 66.8733 72.614 67.3732C71.8234 67.8731 70.896 68.1264 69.8552 68.1264C68.8144 68.1264 67.9087 67.8731 67.1248 67.3749C66.3392 66.875 65.7254 66.1701 65.2984 65.2819C64.8647 64.3821 64.6462 63.344 64.6462 62.1958C64.6462 61.0477 64.868 60.0062 65.3084 59.1014C65.742 58.2049 66.3609 57.4933 67.1465 56.9884C67.9304 56.4835 68.8478 56.2286 69.8752 56.2286C70.9027 56.2286 71.8234 56.4852 72.614 56.9901C73.4046 57.495 74.0251 58.2099 74.4604 59.1114L74.4571 59.1081Z" fill="white"/>
<path d="M104.51 60.3962H95.2397V53.3008H91.8004V71.0376H95.2397V63.5589H104.51V71.0376H107.949V53.3008H104.51V60.3962Z" fill="white"/>
<path d="M125.238 53.3008V55.2121C124.671 54.5889 124.018 54.079 123.288 53.6907C122.3 53.1658 121.166 52.8992 119.92 52.8992C118.349 52.8992 116.908 53.3174 115.637 54.1406C114.369 54.9605 113.365 56.0936 112.651 57.5083C111.941 58.9164 111.581 60.4861 111.581 62.1775C111.581 63.8689 111.941 65.4569 112.651 66.865C113.365 68.2797 114.369 69.4095 115.637 70.2244C116.908 71.0409 118.356 71.4558 119.937 71.4558C121.211 71.4558 122.364 71.1742 123.365 70.616C124.102 70.2044 124.761 69.6712 125.328 69.0229V71.0359H128.694V53.3008H125.236H125.238ZM125.456 62.1958C125.456 63.344 125.234 64.3821 124.796 65.2803C124.362 66.1701 123.742 66.875 122.951 67.3749C122.16 67.8748 121.233 68.1281 120.192 68.1281C119.151 68.1281 118.246 67.8748 117.462 67.3766C116.676 66.8767 116.062 66.1718 115.635 65.2836C115.202 64.3838 114.983 63.3456 114.983 62.1975C114.983 61.0494 115.205 60.0079 115.645 59.1031C116.079 58.2066 116.698 57.495 117.483 56.9901C118.267 56.4852 119.185 56.2302 120.212 56.2302C121.24 56.2302 122.16 56.4869 122.951 56.9918C123.742 57.4967 124.362 58.2115 124.797 59.1131C125.236 60.0246 125.46 61.0627 125.46 62.1992L125.456 62.1958Z" fill="white"/>
<path d="M86.7933 53.3009H83.3723V71.036H86.7933V53.3009Z" fill="white"/>
<path d="M81.9078 50.888C83.0629 50.888 83.9994 49.9524 83.9994 48.7984C83.9994 47.6443 83.0629 46.7087 81.9078 46.7087C80.7526 46.7087 79.8162 47.6443 79.8162 48.7984C79.8162 49.9524 80.7526 50.888 81.9078 50.888Z" fill="white"/>
<path d="M88.256 50.888C89.4112 50.888 90.3476 49.9524 90.3476 48.7984C90.3476 47.6443 89.4112 46.7087 88.256 46.7087C87.1009 46.7087 86.1644 47.6443 86.1644 48.7984C86.1644 49.9524 87.1009 50.888 88.256 50.888Z" fill="white"/>
<path d="M141.66 8.8355V0.503662H133.321V17.1673H150V8.8355H141.66Z" fill="#FF3C00"/>
<defs>
<linearGradient id="paint0_linear_1505_20442" x1="137.509" y1="25.4991" x2="137.509" y2="8.83545" gradientUnits="userSpaceOnUse">
<stop offset="0.15" stop-color="#FF3C00"/>
<stop offset="0.2" stop-color="#F63900"/>
<stop offset="0.29" stop-color="#DD3200"/>
<stop offset="0.4" stop-color="#B52700"/>
<stop offset="0.53" stop-color="#7E1800"/>
<stop offset="0.67" stop-color="#390400"/>
<stop offset="0.7" stop-color="#280000"/>
</linearGradient>
<linearGradient id="paint1_linear_1505_20442" x1="124.981" y1="13.0031" x2="141.66" y2="13.0031" gradientUnits="userSpaceOnUse">
<stop offset="0.15" stop-color="#FF3C00"/>
<stop offset="0.2" stop-color="#F63900"/>
<stop offset="0.29" stop-color="#DD3200"/>
<stop offset="0.4" stop-color="#B52700"/>
<stop offset="0.53" stop-color="#7E1800"/>
<stop offset="0.67" stop-color="#390400"/>
<stop offset="0.7" stop-color="#280000"/>
</linearGradient>
</defs>
</svg>
